<svg xmlns="http://www.w3.org/2000/svg" version="1.1" xmlns:xlink="http://www.w3.org/1999/xlink" xmlns:svgjs="http://svgjs.dev/svgjs" width="100%" height="100%" viewBox="0 0 1000 600"><rect width="1000" height="600" x="0" y="0" fill="#2b3252"/><g><rect width="333.3333333333333" height="333.3333333333333" rx="13.333333333333334" ry="13.333333333333334" y="225.87495192587124" fill="#fad744" transform="matrix(0.6137899541645558,0,0,0.6137899541645558,0,59.061897223605456)" x="203.65272521972653"/><path d="M334.3841781601386 462.2016776816221L317.0512341255425 467.5416250862198Q317.0512341255425 467.5416250862198 315.03781133364504 460.6259554966588Q312.9806184810541 453.7102859070977 309.52278368627356 442.33007012680736Q306.02117883079956 430.9936244072104 301.7754829435374 417.46867565294224Q297.5297870562752 403.89995683798065 293.4154013510933 390.1999278409388Q289.34478570660485 376.499898843897 285.7118706690506 364.98837288152635Q282.0789556314964 353.4768469191557 279.8904525968252 346.8675677544486L279.8904525968252 346.8675677544486Q274.50673513153396 331.4167363296698 259.09967376744856 331.1103459048158L259.09967376744856 331.1103459048158L258.4431228570472 329.8410141447065L260.32523546686446 319.4237396996715Q260.32523546686446 319.4237396996715 265.22748226452796 319.4237396996715Q270.12972906219153 319.4237396996715 276.08245731649725 319.5988199424452Q282.0789556314964 319.77390018521885 285.5367904262769 319.77390018521885L285.5367904262769 319.77390018521885Q294.9911235360566 319.77390018521885 303.52628537127435 319.1173492748175Q312.0176771457987 318.5045684251096 317.22631436831625 318.0230977574819Q322.43495159083375 317.5416270898542 322.43495159083375 317.5416270898542L322.43495159083375 317.5416270898542L323.04773244054167 319.1173492748175L321.16561983072444 328.87807280945117Q310.74834538568945 329.2282332949985 306.98412016605494 330.93526566204207Q303.2198949464204 332.68606808977904 303.2198949464204 337.10684421981495L303.2198949464204 337.10684421981495Q303.2198949464204 339.60173767934015 305.10200755623765 347.65542884693025Q306.98412016605494 355.66534995382693 309.9604842932078 366.8704854913436Q312.9806184810541 378.07562102886027 316.2633730330609 389.8935374160849Q319.58989764576114 401.71145380330944 322.566261772914 412.08495818765107Q325.5863959607603 422.50223263268606 327.46850857057757 428.9364315546195Q329.3506211803948 435.4144005372463 329.3506211803948 435.4144005372463L329.3506211803948 435.4144005372463L330.6199529405041 435.4144005372463Q335.347119495394 423.11501348239403 339.59281538265617 412.56642885527873Q343.83851126991834 402.0178442281634 347.47142630747254 392.8699015432377Q351.10434134502674 383.721958858312 354.25578571495333 376.32481860112324Q357.4072300848799 368.92767834393453 359.7708133623248 362.7560997861617Q362.1343966397697 356.62829128908226 363.710118824733 351.9011247341924L363.710118824733 351.9011247341924Q360.55867445480646 341.8340107747048 355.83150789991663 336.4502933094136Q351.10434134502674 331.1103459048158 341.34361781039314 331.1103459048158L341.34361781039314 331.1103459048158L340.68706689999175 329.8410141447065L342.6129495705024 319.4237396996715Q342.6129495705024 319.4237396996715 347.47142630747254 319.4237396996715Q352.3736731051361 319.4237396996715 358.37017142013525 319.5988199424452Q364.322899674441 319.77390018521885 367.8245045299149 319.77390018521885L367.8245045299149 319.77390018521885Q377.2788376396946 319.77390018521885 385.59514917144526 319.2924295175912Q393.95523076388935 318.8109588499635 399.3389482291805 318.5045684251096Q404.67889563377827 318.19817800025555 404.67889563377827 318.19817800025555L404.67889563377827 318.19817800025555L405.29167648348624 319.77390018521885L403.409563873669 329.53462371985256Q392.68589900378 329.8410141447065 389.0967540269192 331.4167363296698Q385.463838989365 332.9924585146331 385.463838989365 337.10684421981495L385.463838989365 337.10684421981495Q385.463838989365 339.29534725448616 387.34595159918223 347.3490384220763Q389.22806420899946 355.35895952897295 392.2481983968458 366.5640950664896Q395.2245625239986 377.72546054331286 398.55108713669887 389.71845717331115Q401.8338416887057 401.71145380330944 404.853975876552 412.08495818765107Q407.83034000370486 422.50223263268606 409.71245261352215 428.9364315546195Q411.59456522333943 435.4144005372463 411.59456522333943 435.4144005372463L411.59456522333943 435.4144005372463L412.8638969834487 435.4144005372463Q424.20034270304564 406.4386203581993 432.4291141134094 386.2606223785306Q440.61411546307977 366.0826243988619 445.0348915931157 354.26470801163737Q449.41189766245816 342.44679162441275 449.41189766245816 338.68256640477824L449.41189766245816 338.68256640477824Q449.41189766245816 334.26179027474234 446.61061377807897 332.51098784700537Q443.76555983300636 330.8039554799618 436.4997297578979 330.8039554799618L436.4997297578979 330.8039554799618L424.85689361344697 330.8039554799618L423.5875618533377 328.87807280945117L425.16328403830096 319.1173492748175Q425.16328403830096 319.1173492748175 429.8904505931908 319.2924295175912Q434.6176171480807 319.4237396996715 441.7083669804154 319.5988199424452Q448.7991168127502 319.77390018521885 456.3713373127126 319.77390018521885L456.3713373127126 319.77390018521885Q461.7112847173104 319.77390018521885 467.7077830323095 319.5988199424452Q473.70428134730867 319.4237396996715 477.94997723457084 319.4237396996715Q482.195673121833 319.4237396996715 482.195673121833 319.4237396996715L482.195673121833 319.4237396996715L480.00717008716185 331.1103459048158Q473.70428134730867 331.7231267545237 469.8962860669808 336.3189831273333Q466.1320608473462 340.87106943944946 460.4419529572011 354.74617867926503L460.4419529572011 354.74617867926503L416.3217317782292 462.2016776816221L399.3389482291805 467.5416250862198Q399.3389482291805 467.5416250862198 396.6252044661882 458.5687626440678Q393.95523076388935 449.5959002019158 389.53445463385344 435.2393202944726Q385.157448564511 420.92651044772276 380.25520176684745 404.86289817323603Q375.35295496918394 388.7555158380558 370.9759488998415 374.57401617338627L370.9759488998415 374.57401617338627L369.0500662293308 374.57401617338627L334.3841781601386 462.2016776816221Z " fill="#2b3252" transform="matrix(0.6137899541645558,0,0,0.6137899541645558,0,59.061897223605456)"/><path d="M669.6525441175758 430.4672784158016L659.8412495387112 433.8299346922888Q659.8412495387112 433.8299346922888 658.8409657096296 430.3821478771564Q657.8619645152093 426.9343610620239 656.0955058383205 420.74111437558236Q654.3290471614316 414.5265850544794 651.8815441753808 406.4179012485198Q649.43404118933 398.2879348078988 646.5821681447143 388.79587974895395Q643.7515777347598 379.2825420553478 640.623030439547 369.1732905912249Q637.473200509673 359.064039127102 634.259522675815 349.10376610560826L634.259522675815 349.10376610560826Q632.8761514228297 344.6556954613942 629.5773430503265 342.59127989924696Q626.2785346778231 340.5268643370998 620.4683754152852 340.3566032598093L620.4683754152852 340.3566032598093Q620.4683754152852 340.2076248171801 620.3832448766399 340.0586463745509Q620.319396972656 339.9096679319218 620.319396972656 339.7606894892926L620.319396972656 339.7606894892926L621.2345502630924 333.16307274428607Q621.2345502630924 333.16307274428607 624.5333586355956 333.31205118691526Q627.8108843734376 333.46102962954444 631.9609981323933 333.54616016818966Q636.0898292566877 333.6312907068349 638.5373322427386 333.6312907068349L638.5373322427386 333.6312907068349Q644.0708172546796 333.6312907068349 649.1148016694103 333.16307274428607Q654.1800687188024 332.6948547817372 657.4788770913057 332.3117673578336Q660.7564028291476 331.92867993392997 660.7564028291476 331.92867993392997L660.7564028291476 331.92867993392997L661.2246207916965 333.0140943016569L660.6074243865185 338.99451464148535Q655.3931788944972 339.2924715267437 652.5625884845427 339.9735158359057Q649.7319980745883 340.675842779729 648.5827358028774 341.88895295542375Q647.4334735311667 343.1233457657798 647.4334735311667 345.2728918665722L647.4334735311667 345.2728918665722Q647.4334735311667 346.48600204226693 648.4337573602484 351.0192032251263Q649.43404118933 355.5311217733243 651.1153693275736 361.9797600757016Q652.7966974658171 368.40711574341765 654.8611130279644 375.7709073362314Q656.9255285901116 383.1134162943838 658.9260962482748 390.32822944456836Q660.9266639064382 397.52175996009163 662.6079920446817 403.4170497612749Q664.2893201829253 409.31233956245813 665.289604012007 412.8452569162358Q666.2898878410886 416.37817427001346 666.2898878410886 416.37817427001346L666.2898878410886 416.37817427001346L667.205041131525 416.37817427001346Q669.3545872323174 410.5467323728142 671.4828506984485 404.6514425716309Q673.6323967992411 398.75615277044767 675.8670734386786 392.8395803346031Q678.0804674434551 386.94429053341986 680.2300135442475 381.0490007322366Q682.37955964504 375.1537109310534 684.5078231111711 369.25842112987016Q686.6573692119636 363.34184869402554 688.806915312756 357.53168943148756L688.806915312756 357.53168943148756Q688.1897189075779 355.3821433306951 687.508674598416 353.2325972299027Q686.8063476545927 351.08305112911023 686.0401728067856 349.10376610560826L686.0401728067856 349.10376610560826Q684.5078231111711 344.506717018765 681.2302973733291 342.50614936060174Q677.9314890008259 340.5268643370998 672.2490255462558 340.3566032598093L672.2490255462558 340.3566032598093L671.9510686609974 339.7606894892926L673.015200394063 333.16307274428607Q673.015200394063 333.16307274428607 674.930637513581 333.2482032829313Q676.846074633099 333.31205118691526 679.7617955816987 333.3971817255605Q682.6775165302984 333.46102962954444 685.593237478898 333.54616016818966Q688.5089584274976 333.6312907068349 690.3392650083705 333.6312907068349L690.3392650083705 333.6312907068349Q694.9363140952137 333.6312907068349 700.150559587235 333.16307274428607Q705.3648050792563 332.6948547817372 708.9615703370179 332.3117673578336Q712.5583355947796 331.92867993392997 712.5583355947796 331.92867993392997L712.5583355947796 331.92867993392997L713.0265535573284 333.0140943016569L712.4093571521504 338.99451464148535Q707.1951116601291 339.2924715267437 704.2793907115293 339.9735158359057Q701.3636697629297 340.675842779729 700.2144074912188 341.88895295542375Q699.065145219508 343.1233457657798 699.065145219508 345.4218703092014L699.065145219508 345.4218703092014Q699.065145219508 346.48600204226693 700.0654290485897 350.87022478249713Q701.0657128776713 355.2331648880659 702.8321715545602 361.660520555782Q704.598630231449 368.10915885815933 706.577915254951 375.4516678163117Q708.5784829131143 382.8154594091255 710.5577679366162 390.0089899246487Q712.5583355947796 397.22380307483326 714.3247942716683 403.1829407800004Q716.0912529485572 409.16336111982895 717.0702541429775 412.76012637759055Q718.0705379720591 416.37817427001346 718.0705379720591 416.37817427001346L718.0705379720591 416.37817427001346L718.9856912624955 416.37817427001346Q720.9862589206588 411.1639287779922 723.5188924453548 404.26835514772733Q726.0515259700509 397.37278151746244 728.7969858413601 389.7748809433743Q731.5637283473305 382.19826300394743 734.2453403146558 374.77062350714976Q736.926952281981 367.3429840103521 739.0764983827735 361.04332415060395Q741.2047618489046 354.7649469255171 742.5242851979059 350.4871373585935Q743.8225259122459 346.1880451570086 743.8225259122459 345.123913423943L743.8225259122459 345.123913423943Q743.8225259122459 342.20819247534337 741.3750229261951 340.9737996649873Q738.9062373054829 339.7606894892926 733.3940349282034 339.7606894892926L733.3940349282034 339.7606894892926L725.7322864501313 339.7606894892926L725.4343295648729 339.14349308411454L726.4984612979384 332.545876339108Q726.4984612979384 332.545876339108 729.7972696704417 332.7799853203825Q733.096078042945 333.0140943016569 737.9910840150466 333.31205118691526Q742.9073726218095 333.6312907068349 747.8023785939112 333.6312907068349L747.8023785939112 333.6312907068349Q751.3352959476888 333.6312907068349 755.0810396480796 333.54616016818966Q758.8267833484704 333.46102962954444 761.4445474118116 333.31205118691526Q764.0410288404917 333.16307274428607 764.0410288404917 333.16307274428607L764.0410288404917 333.16307274428607L762.9768971074261 340.3566032598093Q758.5288264632121 340.5268643370998 756.6985198823393 341.88895295542375Q754.8469306668052 343.2723242084089 753.1656025285616 347.72039485262303L753.1656025285616 347.72039485262303L720.9862589206588 430.4672784158016L711.4942038617139 433.8299346922888Q711.4942038617139 433.8299346922888 709.9618541660994 428.46671075763834Q708.4295044704851 423.10348682298786 705.8117404071438 413.9093886493014Q703.2152589784638 404.7152904756149 699.7674721633314 393.0736893158776Q696.319685348199 381.43208815614025 692.3398326665337 368.8753337059665L692.3398326665337 368.8753337059665L691.403396741436 368.8753337059665L669.6525441175758 430.4672784158016ZM790.4102131858565 433.06375984448164L790.4102131858565 433.06375984448164Q780.7478970496211 433.06375984448164 773.5543665340979 428.785950277558Q766.3395533839133 424.48685807597315 762.2745701636028 416.9102401365463Q758.2308695779537 409.31233956245813 758.2308695779537 399.20308809833523L758.2308695779537 399.20308809833523Q758.2308695779537 391.392361177634 760.9124815452789 384.3478091047399Q763.5940935126041 377.3032570318458 768.3401210420766 371.8549025585501Q773.0861485715491 366.4065480852544 779.1304168153614 363.27800079004163Q785.1959676938352 360.12817086016753 792.0915413241 360.12817086016753L792.0915413241 360.12817086016753Q814.9278083156871 360.12817086016753 814.9278083156871 382.3472414465766L814.9278083156871 382.3472414465766Q814.9278083156871 384.3478091047399 814.6085687957675 386.49735520553236Q814.3106119105092 388.62561867166346 813.9913723905895 389.86001148201956L813.9913723905895 389.86001148201956L812.0120873670875 391.6903180628923L769.7234922950619 391.6903180628923Q769.5532312177713 405.3324868807929 774.7036288058088 413.2283443401394Q779.8327437591847 421.12420179948595 789.1758203755004 422.4224425138259Q798.5188969918162 423.7206832281659 811.2459125192803 417.91052396562793L811.2459125192803 417.91052396562793L812.1610658097167 418.2084808508863L813.8423939479603 422.65655149510036Q810.7776945567315 424.80609759589277 806.5637328937918 427.2536005819436Q802.3497712308522 429.70110356799444 798.0719616639286 431.382431706238Q793.7728694623437 433.06375984448164 790.4102131858565 433.06375984448164ZM770.3194060655786 386.0291372429835L770.3194060655786 386.0291372429835L798.0719616639286 384.64576598999827Q800.3704862073502 384.3478091047399 801.1366610551574 383.5816342569327Q801.9028359029646 382.8154594091255 801.9028359029646 380.51693486570383L801.9028359029646 380.51693486570383Q801.9028359029646 374.3875360832462 798.6040275304614 371.17385824938816Q795.305219157958 367.93889778086884 789.1758203755004 367.93889778086884L789.1758203755004 367.93889778086884Q782.1312683026064 367.93889778086884 776.9170228105851 372.7700558489865Q771.7027773185638 377.6012139171042 770.3194060655786 386.0291372429835ZM878.3500596063951 433.06375984448164L878.3500596063951 433.06375984448164Q872.2206608239374 433.06375984448164 868.7728740088049 429.93521254926884Q865.3250871936725 426.78538261939474 864.7291734231558 420.6559838369371L864.7291734231558 420.6559838369371L864.1119770179777 420.5070053943079Q860.4300812215708 424.1889011907148 857.1312728490676 426.87051315804Q853.8324644765644 429.55212512536525 851.3211135865296 430.9993442823344Q848.7884800618335 432.4678460739649 847.256130366219 432.4678460739649L847.256130366219 432.4678460739649Q841.573666911649 432.4678460739649 837.1468789020962 429.9990604532528Q832.6988082578822 427.551557467202 830.166174733186 423.2737479002784Q827.6335412084901 418.9746556986935 827.6335412084901 413.4624533214138L827.6335412084901 413.4624533214138Q827.6335412084901 409.01438267719976 829.8682178479277 405.6517264007126Q832.0816118527042 402.26778748956406 835.763507649111 401.2036557564985L835.763507649111 401.2036557564985L864.878151865785 393.22266775850676L865.0271303084141 386.49735520553236Q865.0271303084141 378.83560672746023 861.4942129546364 374.53651452587536Q857.98257823552 370.23742232429043 851.5339399331427 370.23742232429043L851.5339399331427 370.23742232429043Q847.256130366219 370.23742232429043 842.5101028367467 372.2379899824537Q837.742792672613 374.238557640617 833.1457435857697 377.89917080236256L833.1457435857697 377.89917080236256L832.3795687379625 377.452235474475L830.5492621570897 370.8546187294685Q834.5291148387549 368.55609418604683 839.4454034455179 366.0234606613508Q844.3404094176195 363.5121097713161 848.7884800618335 361.8094989984112Q853.2365507060476 360.12817086016753 855.5350752494693 360.12817086016753L855.5350752494693 360.12817086016753Q862.2603878024437 360.12817086016753 867.0276979665774 362.5118259422344Q871.7737254960499 364.87419838964 874.3063590207458 369.25842112987016Q876.8177099107806 373.62136123543894 876.8177099107806 379.89973846052584L876.8177099107806 379.89973846052584Q876.8177099107806 381.90030611868906 876.4346224868771 386.32709412824187Q876.0515350629734 390.7751647724559 875.4556212924567 396.2235192457516Q874.8384248872786 401.65059108438606 874.455337463375 406.71585813377817Q874.0722500394714 411.7811251831703 874.0722500394714 415.1437814596575L874.0722500394714 415.1437814596575Q874.0722500394714 418.5064377361446 875.7535781777151 420.3580269516787Q877.4349063159588 422.1883335325515 880.3506272645583 422.1883335325515L880.3506272645583 422.1883335325515Q882.9471086932383 422.1883335325515 885.5648727565796 420.89009281821154Q888.1613541852596 419.59185210387153 889.5447254382449 418.3574592935155L889.5447254382449 418.3574592935155L891.6942715390372 420.80496227956627Q890.4598787286812 422.80552993772955 888.395463166534 425.33816346242554Q886.3310476043868 427.87079698712165 883.7984140796908 429.9990604532528Q881.2657805549946 432.1486065540452 878.3500596063951 433.06375984448164ZM849.8526117948991 422.0393550899223L849.8526117948991 422.0393550899223Q852.7683327434988 422.0393550899223 856.68433752118 419.9749395277751Q860.5790596642 417.91052396562793 863.792737498058 414.67556349710856L863.792737498058 414.67556349710856L864.5589123458653 399.05410965570604L843.7232130124414 405.3324868807929Q839.2751423682274 406.71585813377817 839.2751423682274 411.7811251831703L839.2751423682274 411.7811251831703Q839.2751423682274 416.05893475009384 842.2759938554723 419.0597862373387Q845.2555627080559 422.0393550899223 849.8526117948991 422.0393550899223ZM924.3205504748277 433.06375984448164L924.3205504748277 433.06375984448164Q913.9133421254463 433.06375984448164 909.6142499238614 428.8497981815419Q905.3364403569378 424.63583651860233 905.3364403569378 414.5265850544794L905.3364403569378 414.5265850544794L905.3364403569378 376.83503906929695Q905.3364403569378 372.7062079450026 903.4848511414037 371.00359717209767Q901.654544560531 369.32226903385407 896.5892775111389 369.1732905912249L896.5892775111389 369.1732905912249L895.9720811059609 368.2581373007885L896.7382559537681 363.6610882139452Q900.420151750175 361.8094989984112 903.8679385653073 359.44712655100557Q907.3157253804399 357.0634714689387 909.9973373477651 354.8500774641623Q912.6789493150903 352.61540082472465 914.2112990107047 351.16818166775545Q915.743648706319 349.7209625107863 915.743648706319 349.7209625107863L915.743648706319 349.7209625107863L918.808348097548 350.93407268648104Q918.808348097548 350.93407268648104 918.4252606736444 353.8497936350807Q918.0421732497408 356.76551458368033 917.5952379218533 362.4266954035892L917.5952379218533 362.4266954035892L940.1122653935206 361.9797600757016L940.5804833560695 362.4266954035892L939.1971121030842 370.5566618442101L916.9780415166751 370.0884438816613Q916.5098235541263 377.3032570318458 916.211866668868 386.94429053341986Q915.8926271489482 396.60660666965526 915.8926271489482 408.3971862720217L915.8926271489482 408.3971862720217Q915.8926271489482 416.207913192723 918.5742391162736 419.44287366124234Q921.2558510835988 422.65655149510036 927.8534678286053 422.65655149510036L927.8534678286053 422.65655149510036Q931.6843420676413 422.65655149510036 934.9831504401446 421.27318024211513Q938.2819588126479 419.88980898912985 938.2819588126479 419.88980898912985L938.2819588126479 419.88980898912985L939.8143085082623 423.8696616707951Q939.8143085082623 423.8696616707951 937.9627192927281 425.2530329237803Q936.1324127118554 426.6364041767656 933.4508007445302 428.46671075763834Q930.7691887772049 430.31829997317243 928.236555252509 431.7016712261577Q925.7039217278128 433.06375984448164 924.3205504748277 433.06375984448164ZM947.7740138715927 431.53141014886717L948.6891671620291 425.2530329237803Q953.1372378062432 424.80609759589277 954.903696483132 422.95450838035873Q956.6701551600208 421.12420179948595 956.6701551600208 416.825109597901L956.6701551600208 416.825109597901L956.6701551600208 335.31261884507853Q956.6701551600208 331.1625050861228 955.3506318110195 329.24706796660473Q954.0523910966796 327.3316308470867 950.9876917054507 327.3316308470867L950.9876917054507 327.3316308470867L947.7740138715927 327.3316308470867L947.1568174664147 326.8846955191992L947.7740138715927 321.96840691243625Q951.3069312253705 321.52147158454875 955.5208928883101 320.7552967367415Q959.7348545512497 319.9891218889343 963.714707232915 319.1378165024819Q967.6945599145802 318.30779375069073 970.4613024205506 317.5416189028835L970.4613024205506 317.5416189028835L971.376455710987 319.5209039263855Q970.759259305809 320.6063182941124 969.9930844580018 327.6508703670064Q969.2269096101946 334.6954224399005 968.6948437436619 346.1880451570086Q968.1627778771291 357.68066787411675 967.6945599145802 372.0890115398245L967.6945599145802 372.0890115398245Q968.7586916476457 371.32283669201735 971.6105646922614 369.4073995724993Q974.4411551022159 367.4919624529813 978.0379203599775 365.3424163521888Q981.6346856177391 363.1928702513964 985.0824724328716 361.660520555782Q988.530259248004 360.12817086016753 990.6798053487965 360.12817086016753L990.6798053487965 360.12817086016753Q1000.6400783702901 360.12817086016753 1006.1522807475698 365.2572858135436Q1011.6644831248494 370.4076834015809 1011.6644831248494 379.89973846052584L1011.6644831248494 379.89973846052584Q1011.6644831248494 381.90030611868906 1011.2813957009458 386.49735520553236Q1010.8983082770422 391.0944042923756 1010.4513729491547 396.7555851122844Q1009.9831549866059 402.41676593219324 1009.6000675627023 407.63101142421453Q1009.2169801387987 412.8452569162358 1009.2169801387987 416.207913192723L1009.2169801387987 416.207913192723Q1009.2169801387987 420.6559838369371 1010.4513729491547 422.7203993990843Q1011.6644831248494 424.80609759589277 1014.5802040734492 424.80609759589277L1014.5802040734492 424.80609759589277Q1015.4953573638855 424.80609759589277 1017.1128375981451 424.72096705724755Q1018.7303178324048 424.63583651860233 1019.9434280080997 424.48685807597315L1019.9434280080997 424.48685807597315L1020.2626675280193 425.10405448115114L1019.0282747176633 431.7016712261577Q1016.5807717316123 431.53141014886717 1012.5157885113019 431.382431706238Q1008.4508052909915 431.23345326360885 1005.3861058997626 431.23345326360885L1005.3861058997626 431.23345326360885Q1003.5557993188899 431.23345326360885 1000.9380352555485 431.46756224488325Q998.3415538268686 431.7016712261577 995.4258328782689 432.0847586500613Q992.5101119296693 432.4678460739649 989.6156736157309 433.06375984448164L989.6156736157309 433.06375984448164L990.2115873862476 426.78538261939474Q994.8086364730908 425.57227244370006 996.8092041312542 423.18861736163313Q998.8097717894174 420.80496227956627 998.8097717894174 416.825109597901L998.8097717894174 416.825109597901L999.7249250798538 386.49735520553236Q999.7249250798538 378.83560672746023 996.4261167073505 374.68549296850455Q993.1273083348473 370.5566618442101 986.9979095523896 370.5566618442101L986.9979095523896 370.5566618442101Q983.1670353133535 370.5566618442101 977.5697023974286 373.00416483026095Q971.993652116165 375.4516678163117 967.5455814719511 378.9845851700894L967.5455814719511 378.9845851700894Q967.3966030293218 384.64576598999827 967.3114724906765 390.7751647724559Q967.2263419520312 396.9045635549136 967.1624940480474 403.2680713186457Q967.0773635094022 409.6315790823778 967.0773635094022 416.207913192723L967.0773635094022 416.207913192723Q967.0773635094022 420.97522335685676 968.3756042237421 422.89066047637476Q969.6951275727434 424.80609759589277 972.5895658866818 424.80609759589277L972.5895658866818 424.80609759589277Q973.5260018117795 424.80609759589277 975.1221994113779 424.72096705724755Q976.7396796456375 424.63583651860233 977.9527898213322 424.48685807597315L977.9527898213322 424.48685807597315L978.2720293412519 425.10405448115114L976.8886580882667 431.7016712261577Q974.2921766595867 431.53141014886717 970.142062900631 431.382431706238Q966.0132317763365 431.23345326360885 962.9485323851078 431.23345326360885L962.9485323851078 431.23345326360885Q959.7348545512497 431.23345326360885 955.3506318110195 431.31858380225407Q950.9876917054507 431.382431706238 947.7740138715927 431.53141014886717L947.7740138715927 431.53141014886717ZM1062.8492194853034 433.06375984448164L1062.8492194853034 433.06375984448164Q1053.2081859837294 433.06375984448164 1045.9933728335445 428.785950277558Q1038.7998423180215 424.48685807597315 1034.7348590977108 416.9102401365463Q1030.6698758774005 409.31233956245813 1030.6698758774005 399.20308809833523L1030.6698758774005 399.20308809833523Q1030.6698758774005 391.392361177634 1033.3514878447259 384.3478091047399Q1036.0330998120512 377.3032570318458 1040.7791273415237 371.8549025585501Q1045.5464375056572 366.4065480852544 1051.5907057494696 363.27800079004163Q1057.634973993282 360.12817086016753 1064.5305476235471 360.12817086016753L1064.5305476235471 360.12817086016753Q1087.366814615134 360.12817086016753 1087.366814615134 382.3472414465766L1087.366814615134 382.3472414465766Q1087.366814615134 384.3478091047399 1087.0688577298756 386.49735520553236Q1086.7496182099562 388.62561867166346 1086.4516613246979 389.86001148201956L1086.4516613246979 389.86001148201956L1084.4510936665342 391.6903180628923L1042.1624985945086 391.6903180628923Q1042.0135201518797 405.3324868807929 1047.1426351052555 413.2283443401394Q1052.2717500586318 421.12420179948595 1061.6361093096084 422.4224425138259Q1070.9791859259244 423.7206832281659 1083.684918818727 417.91052396562793L1083.684918818727 417.91052396562793L1084.6213547438247 418.2084808508863L1086.3026828820684 422.65655149510036Q1083.2379834908397 424.80609759589277 1079.0240218279 427.2536005819436Q1074.8100601649603 429.70110356799444 1070.5109679633756 431.382431706238Q1066.233158396452 433.06375984448164 1062.8492194853034 433.06375984448164ZM1042.7796949996869 386.0291372429835L1042.7796949996869 386.0291372429835L1070.5109679633756 384.64576598999827Q1072.8094925067971 384.3478091047399 1073.5756673546043 383.5816342569327Q1074.3418422024115 382.8154594091255 1074.3418422024115 380.51693486570383L1074.3418422024115 380.51693486570383Q1074.3418422024115 374.3875360832462 1071.0430338299084 371.17385824938816Q1067.7655080920663 367.93889778086884 1061.6361093096084 367.93889778086884L1061.6361093096084 367.93889778086884Q1054.5702746020534 367.93889778086884 1049.377311744693 372.7700558489865Q1044.1630662526718 377.6012139171042 1042.7796949996869 386.0291372429835ZM1102.0731151661003 431.8506496687869L1102.8392900139074 425.7212508863292Q1107.4363391007505 425.2530329237803 1108.9686887963653 422.7203993990843Q1110.5010384919797 420.2090485090496 1110.5010384919797 412.994235358865L1110.5010384919797 412.994235358865L1110.5010384919797 379.2825420553478Q1110.5010384919797 374.238557640617 1109.1389498736557 372.0890115398245Q1107.7555786206703 369.9394654390321 1104.6908792294416 369.9394654390321L1104.6908792294416 369.9394654390321Q1103.4564864190856 369.9394654390321 1102.4562025900036 370.1735744203065Q1101.4772013955835 370.4076834015809 1101.4772013955835 370.4076834015809L1101.4772013955835 370.4076834015809L1100.7110265477763 369.32226903385407L1101.1579618756637 364.57624150438164Q1105.9039894051361 363.6610882139452 1110.67129956927 362.57567384621836Q1115.4173270987426 361.5115421131528 1118.6310049326003 360.7453672653456Q1121.8446827664584 359.9791924175384 1121.8446827664584 359.9791924175384L1121.8446827664584 359.9791924175384L1122.9300971341854 360.89434570797476Q1122.9300971341854 360.89434570797476 1122.5470097102816 363.34184869402554Q1122.1639222863782 365.8106343147377 1121.8446827664584 369.4073995724993Q1121.5467258812 373.00416483026095 1121.5467258812 376.68606062666777L1121.5467258812 376.68606062666777L1122.1639222863782 377.1329959545553Q1126.9099498158507 369.9394654390321 1133.0393485983082 365.3424163521888Q1139.168747380766 360.7453672653456 1143.765796467609 360.7453672653456L1143.765796467609 360.7453672653456Q1146.362277896289 360.7453672653456 1147.447692264016 361.04332415060395Q1148.5118239970816 361.3625636705236 1148.5118239970816 361.3625636705236L1148.5118239970816 361.3625636705236L1148.9800419596304 361.9797600757016Q1148.9800419596304 361.9797600757016 1148.660802439711 364.04417563784887Q1148.3628455544526 366.10859119999606 1147.8946275919034 369.4073995724993Q1147.447692264016 372.7062079450026 1147.0646048401122 376.53708218403864Q1146.6815174162089 380.36795642307465 1146.5112563389184 383.87959114219103L1146.5112563389184 383.87959114219103L1140.552118633751 384.3478091047399Q1140.552118633751 378.06943187965305 1139.7859437859438 375.9837336828445Q1139.0197689381366 373.9193181206973 1136.4020048747952 373.9193181206973L1136.4020048747952 373.9193181206973Q1133.0393485983082 373.9193181206973 1129.2084743592723 376.68606062666777Q1125.377600120236 379.431520497977 1122.1639222863782 384.3478091047399L1122.1639222863782 384.3478091047399Q1122.1639222863782 384.3478091047399 1121.9936612090878 387.1783995146943Q1121.8446827664584 390.0089899246487 1121.6957043238294 394.3080821262336Q1121.5467258812 398.5858916931572 1121.397747438571 403.1190928760165Q1121.2274863612806 407.63101142421453 1121.0785079186512 411.07879823934695Q1120.9295294760223 414.5265850544794 1120.9295294760223 415.6119994222063L1120.9295294760223 415.6119994222063Q1120.9295294760223 420.80496227956627 1122.4618791716366 422.65655149510036Q1123.994228867251 424.48685807597315 1128.2933210688357 424.48685807597315L1128.2933210688357 424.48685807597315Q1129.9746492070794 424.48685807597315 1132.5072827317754 424.33787963334396Q1135.0186336218103 424.1889011907148 1135.0186336218103 424.1889011907148L1135.0186336218103 424.1889011907148L1135.1888946991007 424.80609759589277L1133.8055234461153 431.53141014886717Q1133.8055234461153 431.53141014886717 1132.273173750501 431.46756224488325Q1130.7408240548866 431.382431706238 1128.2933210688357 431.382431706238Q1125.8245354481237 431.382431706238 1123.1429234807983 431.31858380225407Q1120.4613115134734 431.23345326360885 1118.1627869700515 431.23345326360885L1118.1627869700515 431.23345326360885Q1113.7359989604988 431.23345326360885 1110.0541031640919 431.382431706238Q1106.372207367685 431.53141014886717 1104.2226612668928 431.7016712261577Q1102.0731151661003 431.8506496687869 1102.0731151661003 431.8506496687869L1102.0731151661003 431.8506496687869ZM1233.706210546311 432.76580295922327L1233.706210546311 432.76580295922327L1233.2592752184232 431.7016712261577L1233.85518898894 425.7212508863292Q1239.2184129235907 425.2530329237803 1242.1341338721904 424.63583651860233Q1245.0498548207897 424.0399227480856 1246.2842476311457 422.89066047637476Q1247.4973578068407 421.74139820466394 1247.4973578068407 419.88980898912985L1247.4973578068407 419.88980898912985Q1247.4973578068407 418.3574592935155 1247.1994009215823 416.5271527126427Q1246.8801614016625 414.67556349710856 1246.1139865538553 412.54730003097745L1246.1139865538553 412.54730003097745L1241.0700021391244 395.84043182184803Q1238.303259633154 395.69145337921884 1233.3231231224072 395.69145337921884Q1228.3429866116603 395.69145337921884 1225.1293087778026 395.69145337921884L1225.1293087778026 395.69145337921884Q1220.6812381335885 395.69145337921884 1215.8500800654706 396.1383887071064Q1211.0402046320146 396.60660666965526 1208.4224405686732 396.9045635549136L1208.4224405686732 396.9045635549136L1202.7612597487646 412.8452569162358Q1201.3778884957792 416.9740880405302 1201.3778884957792 418.8256772560643L1201.3778884957792 418.8256772560643Q1201.3778884957792 422.1883335325515 1203.5912825005553 423.656835324182Q1205.8259591399933 425.10405448115114 1210.5719866694653 425.10405448115114L1210.5719866694653 425.10405448115114L1219.2978668806031 425.10405448115114L1219.617106400523 425.7212508863292L1218.7019531100864 432.2975849966744Q1218.7019531100864 432.2975849966744 1215.4669926415672 431.99962811141603Q1212.253314807709 431.7016712261577 1207.3583088356077 431.46756224488325Q1202.4420202288447 431.23345326360885 1197.3980358141139 431.23345326360885L1197.3980358141139 431.23345326360885Q1193.716140017707 431.23345326360885 1189.8001352400256 431.31858380225407Q1185.9054130970057 431.382431706238 1183.2238011296804 431.53141014886717Q1180.5421891623555 431.7016712261577 1180.5421891623555 431.7016712261577L1180.5421891623555 431.7016712261577L1181.75529933805 424.48685807597315Q1186.0543915396347 424.0399227480856 1188.650872968315 421.5711371273735Q1191.268637031656 419.12363414132267 1193.716140017707 412.69627847360664L1193.716140017707 412.69627847360664L1223.5969590821883 334.3974655546421L1233.2592752184232 331.7797014913008L1234.4723853941182 331.7797014913008Q1234.4723853941182 331.7797014913008 1235.4726692231998 335.37646674906244Q1236.4729530522814 338.99451464148535 1238.2394117291701 345.33673977055616Q1239.9845877713979 351.7002475342883 1242.3682428534644 359.8940618788931Q1244.7518979355314 368.10915885815933 1247.4335099028567 377.3032570318458Q1250.115121870182 386.49735520553236 1253.0095601841203 395.904279725832Q1255.92528113272 405.3324868807929 1258.8410020813194 413.9093886493014L1258.8410020813194 413.9093886493014Q1260.6713086621926 419.59185210387153 1263.8211385920667 421.8903766472931Q1266.9709685219404 424.1889011907148 1273.5473026322857 424.80609759589277L1273.5473026322857 424.80609759589277L1273.8665421522055 425.4020113664095L1272.7811277844785 431.7016712261577Q1272.7811277844785 431.7016712261577 1269.8015589318952 431.53141014886717Q1266.80070744465 431.382431706238 1262.9698332056141 431.31858380225407Q1259.1389589665782 431.23345326360885 1256.5424775378979 431.23345326360885L1256.5424775378979 431.23345326360885Q1250.7110356406988 431.23345326360885 1245.4329422446935 431.61654068751244Q1240.1548488486883 431.99962811141603 1236.9198883801691 432.3827155353197Q1233.706210546311 432.76580295922327 1233.706210546311 432.76580295922327ZM1225.7465051829804 348.4865697004302L1211.1891830746436 389.3917935194707L1224.6610908152538 389.3917935194707Q1227.7257902064825 389.3917935194707 1232.0248824080672 389.0938366342123Q1236.3239746096524 388.79587974895395 1238.9204560383323 388.62561867166346L1238.9204560383323 388.62561867166346L1226.8106369160464 348.4865697004302L1225.7465051829804 348.4865697004302ZM1276.165066695627 467.54162799580604L1276.165066695627 467.54162799580604L1276.9312415434342 461.5824902906388Q1281.8262475155361 460.9652938854608 1283.273466672505 458.9008783233136Q1284.7419684641354 456.8151801265051 1284.7419684641354 450.53680290141824L1284.7419684641354 450.53680290141824Q1284.7419684641354 448.0892999153674 1284.8058163681194 443.34327238589503Q1284.8909469067648 438.59724485642255 1284.9760774454098 433.4468472683852Q1285.0399253493938 428.31773231500915 1285.0399253493938 425.10405448115114L1285.0399253493938 425.10405448115114L1285.0399253493938 379.431520497977Q1285.0399253493938 374.238557640617 1283.3585972111505 372.1528594438085Q1281.6772690729067 370.0884438816613 1277.527155313951 370.0884438816613L1277.527155313951 370.0884438816613L1275.8458271757072 370.0884438816613L1275.3988918478199 369.47124747648326L1275.8458271757072 364.42726306175246Q1281.209051110358 363.5121097713161 1286.1253397171208 362.5118259422344Q1291.0203456892223 361.5115421131528 1294.1701756190964 360.7453672653456Q1297.298722914309 359.9791924175384 1297.298722914309 359.9791924175384L1297.298722914309 359.9791924175384L1298.2138762047457 361.21358522789444Q1298.2138762047457 361.21358522789444 1297.617962434229 363.8100666565744Q1297.0007660290507 366.4065480852544 1296.6815265091313 369.47124747648326L1296.6815265091313 369.47124747648326L1297.298722914309 370.5566618442101Q1304.0453181019452 365.8106343147377 1308.7274977274333 363.1928702513964Q1313.3883947182608 360.5963888227164 1315.069722856504 360.5963888227164L1315.069722856504 360.5963888227164Q1323.9658641449323 360.5963888227164 1330.563480889939 364.66137204302686Q1337.1398150002842 368.705072628676 1340.9068413353361 375.9837336828445Q1344.652585035727 383.262394737013 1344.652585035727 392.9247108732484L1344.652585035727 392.9247108732484Q1344.652585035727 401.2036557564985 1341.6730161831433 408.482316810667Q1338.6721646958986 415.76097786483547 1333.3940712998933 421.27318024211513Q1328.0946952692266 426.78538261939474 1321.199121638962 429.93521254926884Q1314.303548008697 433.06375984448164 1306.4928210879957 433.06375984448164L1306.4928210879957 433.06375984448164Q1304.662514507123 433.06375984448164 1302.0447504437816 432.91478140185245Q1299.4482690151017 432.76580295922327 1297.3838534529546 432.6168245165941Q1295.3194378908074 432.4678460739649 1295.3194378908074 432.4678460739649L1295.3194378908074 432.4678460739649Q1295.3194378908074 436.29872031300096 1295.3832857947914 440.27857299466615Q1295.4684163334364 444.2584256763314 1295.4684163334364 448.2382783579966L1295.4684163334364 448.2382783579966Q1295.4684163334364 455.28283043089067 1296.9156354904057 457.8154639555867Q1298.3841372820361 460.34809748028283 1302.6619468489598 460.34809748028283L1302.6619468489598 460.34809748028283Q1303.8963396593158 460.34809748028283 1305.2797109123007 460.2629669416375Q1306.6417995306251 460.19911903765365 1307.876192340981 460.19911903765365L1307.876192340981 460.19911903765365L1308.1741492262395 460.6460543655411L1306.9610390505445 466.4774962627405Q1305.1094498350108 466.4774962627405 1303.2791432541376 466.4774962627405Q1301.4488366732649 466.4774962627405 1299.682377996376 466.4774962627405Q1297.9159193194873 466.4774962627405 1296.0856127386146 466.4774962627405Q1294.2340235230804 466.4774962627405 1292.4037169422077 466.4774962627405L1292.4037169422077 466.4774962627405Q1288.104624740623 466.4774962627405 1284.358881040232 466.7116052440149Q1280.5918547051797 466.9457142252893 1278.3784607004036 467.24367111054767Q1276.165066695627 467.54162799580604 1276.165066695627 467.54162799580604ZM1310.7919132895809 424.63583651860233L1310.7919132895809 424.63583651860233Q1321.050143196333 424.63583651860233 1326.945432997516 417.6764149843535Q1332.8620054333605 410.69571081544336 1332.8620054333605 398.5858916931572L1332.8620054333605 398.5858916931572Q1332.8620054333605 390.7751647724559 1330.1803934660352 384.5819180860143Q1327.4987814987098 378.3673887649114 1322.9017324118668 374.68549296850455Q1318.3046833250237 371.00359717209767 1312.6222198704536 371.00359717209767L1312.6222198704536 371.00359717209767Q1309.5575204792244 371.00359717209767 1305.1094498350108 373.08929536890616Q1300.6826618254577 375.1537109310534 1296.6815265091313 378.51636720754055L1296.6815265091313 378.51636720754055Q1296.383569623873 384.79474443262745 1296.0856127386146 392.30751446807034Q1295.7663732186948 399.8202845035132 1295.6173947760658 407.48203298158535Q1295.4684163334364 415.1437814596575 1295.4684163334364 421.74139820466394L1295.4684163334364 421.74139820466394Q1298.5331157246655 422.95450838035873 1302.7470773876048 423.8058137668112Q1306.9610390505445 424.63583651860233 1310.7919132895809 424.63583651860233ZM1357.0603610432718 467.54162799580604L1357.0603610432718 467.54162799580604L1357.826535891079 461.5824902906388Q1362.7428244978419 460.9652938854608 1364.1900436548108 458.9008783233136Q1365.6372628117801 456.8151801265051 1365.6372628117801 450.53680290141824L1365.6372628117801 450.53680290141824Q1365.6372628117801 448.0892999153674 1365.7223933504251 443.34327238589503Q1365.8075238890706 438.59724485642255 1365.8713717930545 433.4468472683852Q1365.9565023317 428.31773231500915 1365.9565023317 425.10405448115114L1365.9565023317 425.10405448115114L1365.9565023317 379.431520497977Q1365.9565023317 374.238557640617 1364.2751741934562 372.1528594438085Q1362.5725634205514 370.0884438816613 1358.4437322962567 370.0884438816613L1358.4437322962567 370.0884438816613L1356.762404158013 370.0884438816613L1356.2941861954646 369.47124747648326L1356.762404158013 364.42726306175246Q1362.1256280926636 363.5121097713161 1367.0206340647655 362.5118259422344Q1371.9369226715285 361.5115421131528 1375.0654699667411 360.7453672653456Q1378.2152998966153 359.9791924175384 1378.2152998966153 359.9791924175384L1378.2152998966153 359.9791924175384L1379.1304531870514 361.21358522789444Q1379.1304531870514 361.21358522789444 1378.5132567818732 363.8100666565744Q1377.8960603766955 366.4065480852544 1377.598103491437 369.47124747648326L1377.598103491437 369.47124747648326L1378.2152998966153 370.5566618442101Q1384.961895084251 365.8106343147377 1389.622792075078 363.1928702513964Q1394.3049717005665 360.5963888227164 1395.9862998388103 360.5963888227164L1395.9862998388103 360.5963888227164Q1404.882441127238 360.5963888227164 1411.4587752375837 364.66137204302686Q1418.05639198259 368.705072628676 1421.8021356829809 375.9837336828445Q1425.5691620180328 383.262394737013 1425.5691620180328 392.9247108732484L1425.5691620180328 392.9247108732484Q1425.5691620180328 401.2036557564985 1422.568310530788 408.482316810667Q1419.5887416782043 415.76097786483547 1414.289365647538 421.27318024211513Q1409.0112722515328 426.78538261939474 1402.1156986212677 429.93521254926884Q1395.220124991003 433.06375984448164 1387.4093980703014 433.06375984448164L1387.4093980703014 433.06375984448164Q1385.5578088547677 433.06375984448164 1382.9613274260873 432.91478140185245Q1380.3648459974074 432.76580295922327 1378.2791478005993 432.6168245165941Q1376.2147322384521 432.4678460739649 1376.2147322384521 432.4678460739649L1376.2147322384521 432.4678460739649Q1376.2147322384521 436.29872031300096 1376.2998627770971 440.27857299466615Q1376.363710681081 444.2584256763314 1376.363710681081 448.2382783579966L1376.363710681081 448.2382783579966Q1376.363710681081 455.28283043089067 1377.8322124727115 457.8154639555867Q1379.2794316296809 460.34809748028283 1383.5785238312656 460.34809748028283L1383.5785238312656 460.34809748028283Q1384.79163400696 460.34809748028283 1386.1750052599455 460.2629669416375Q1387.5583765129309 460.19911903765365 1388.7927693232868 460.19911903765365L1388.7927693232868 460.19911903765365L1389.0907262085452 460.6460543655411L1387.8563333981892 466.4774962627405Q1386.0260268173165 466.4774962627405 1384.1957202364438 466.4774962627405Q1382.3441310209096 466.4774962627405 1380.5776723440208 466.4774962627405Q1378.832496301793 466.4774962627405 1376.9809070862589 466.4774962627405Q1375.1506005053861 466.4774962627405 1373.2990112898524 466.4774962627405L1373.2990112898524 466.4774962627405Q1369.0212017229287 466.4774962627405 1365.2541753878763 466.7116052440149Q1361.5084316874854 466.9457142252893 1359.2950376827093 467.24367111054767Q1357.0603610432718 467.54162799580604 1357.0603610432718 467.54162799580604ZM1391.6872076372251 424.63583651860233L1391.6872076372251 424.63583651860233Q1401.9667201786388 424.63583651860233 1407.8620099798218 417.6764149843535Q1413.7572997810053 410.69571081544336 1413.7572997810053 398.5858916931572L1413.7572997810053 398.5858916931572Q1413.7572997810053 390.7751647724559 1411.07568781368 384.5819180860143Q1408.3940758463546 378.3673887649114 1403.7970267595115 374.68549296850455Q1399.1999776726684 371.00359717209767 1393.5387968527593 371.00359717209767L1393.5387968527593 371.00359717209767Q1390.4740974615306 371.00359717209767 1386.0260268173165 373.08929536890616Q1381.5779561731024 375.1537109310534 1377.598103491437 378.51636720754055L1377.598103491437 378.51636720754055Q1377.3001466061787 384.79474443262745 1376.9809070862589 392.30751446807034Q1376.6829502010005 399.8202845035132 1376.5339717583715 407.48203298158535Q1376.363710681081 415.1437814596575 1376.363710681081 421.74139820466394L1376.363710681081 421.74139820466394Q1379.4284100723098 422.95450838035873 1383.6423717352495 423.8058137668112Q1387.8563333981892 424.63583651860233 1391.6872076372251 424.63583651860233Z " fill="#fad744" transform="matrix(0.6137899541645558,0,0,0.6137899541645558,0,59.061897223605456)"/></g></svg>